<svg xmlns="http://www.w3.org/2000/svg" xmlns:xlink="http://www.w3.org/1999/xlink" width="437" height="436.592" viewBox="0 0 437 436.592"><defs><linearGradient id="d"><stop offset="0" style="stop-color:#0569b4;stop-opacity:1"/><stop offset=".474" style="stop-color:#4184c8;stop-opacity:1"/><stop offset="1" style="stop-color:#0569b4;stop-opacity:.92477876"/></linearGradient><linearGradient id="c"><stop offset="0" style="stop-color:#034f87;stop-opacity:1"/><stop offset="1" style="stop-color:#50b1fa;stop-opacity:0"/></linearGradient><linearGradient id="b"><stop offset="0" style="stop-color:#2e82cf;stop-opacity:1"/><stop offset="1" style="stop-color:#0066a5;stop-opacity:1"/></linearGradient><linearGradient id="a"><stop offset="0" style="stop-color:#88a3d0;stop-opacity:1"/><stop offset="1" style="stop-color:#5d83bf;stop-opacity:1"/></linearGradient><linearGradient xlink:href="#b" id="e" x1="114.681" x2="109.242" y1="98.406" y2="136.834" gradientTransform="translate(-151.855 -151.639)scale(3.16694)" gradientUnits="userSpaceOnUse"/><linearGradient xlink:href="#d" id="g" x1="80.263" x2="80.429" y1="93.086" y2="32.328" gradientTransform="translate(-151.855 -151.639)scale(3.16694)" gradientUnits="userSpaceOnUse"/><radialGradient xlink:href="#a" id="h" cx="25.021" cy="23.37" r="3.969" fx="25.021" fy="23.37" gradientTransform="rotate(-.492 -15960.888 15515.33)scale(2.42533 2.54033)" gradientUnits="userSpaceOnUse"/><radialGradient xlink:href="#a" id="k" cx="10.763" cy="45.501" r="2.337" fx="10.763" fy="45.501" gradientTransform="matrix(3.16694 0 0 3.24571 -151.855 -155.223)" gradientUnits="userSpaceOnUse"/><radialGradient xlink:href="#a" id="j" cx="25.151" cy="106.27" r="2.347" fx="25.151" fy="106.27" gradientTransform="matrix(3.16694 0 0 3.29088 -151.855 -164.81)" gradientUnits="userSpaceOnUse"/><radialGradient xlink:href="#a" id="i" cx="21.516" cy="113.901" r="1.243" fx="21.516" fy="113.901" gradientTransform="matrix(3.16694 0 0 3.6313 -151.855 -204.53)" gradientUnits="userSpaceOnUse"/><radialGradient xlink:href="#c" id="f" cx="38.98" cy="115.148" r="27.734" fx="38.98" fy="115.148" gradientTransform="matrix(5.44467 -.00545 .00556 5.5619 -241.28 -421.532)" gradientUnits="userSpaceOnUse"/></defs><path d="M-123.154-146.454a22.843 22.843 0 0 0-22.893 22.893v386.056a22.843 22.843 0 0 0 22.893 22.893h386.47a22.84 22.84 0 0 0 22.887-22.893V-123.56a22.84 22.84 0 0 0-22.886-22.893z" style="color:#000;fill:#005dad;stroke-width:4.7504;-inkscape-stroke:none" transform="translate(148.422 148.317)"/><path d="M270.225 217.487a63.442 63.417 0 0 1-63.443 63.417 63.442 63.417 0 0 1-63.442-63.417 63.442 63.417 0 0 1 63.443-63.416 63.442 63.417 0 0 1 63.442 63.416" style="opacity:1;fill:url(#e);stroke-width:2.91212" transform="translate(148.422 148.317)"/><path d="M184.997 232.791h40.118v32.095h-40.118Z" style="opacity:1;fill:#0f5e9c;stroke-width:3.16694" transform="translate(148.422 148.317)"/><path d="M114.846 108.238a3.37 3.04 0 0 1-3.37 3.04 3.37 3.04 0 0 1-3.37-3.04 3.37 3.04 0 0 1 3.37-3.04 3.37 3.04 0 0 1 3.37 3.04M123.238 109.956a3.37 3.04 0 0 1-3.37 3.04 3.37 3.04 0 0 1-3.37-3.04 3.37 3.04 0 0 1 3.37-3.04 3.37 3.04 0 0 1 3.37 3.04M117.753 114.582a3.37 3.04 0 0 1-3.37 3.04 3.37 3.04 0 0 1-3.37-3.04 3.37 3.04 0 0 1 3.37-3.04 3.37 3.04 0 0 1 3.37 3.04" style="fill:#59686f" transform="translate(-3.433 -3.322)scale(3.16694)"/><path d="M199.944 220.038c-4.728-1.44 1.2-3.683.364-4.004-2.332-.895.907-3.728 3.943-6.117 2.668-2.098 2.763-2.104 3.462-.214.396 1.069 1.442 2.22 2.324 2.56 1.875.719 6.871-.15 6.871-1.457 0-1.838 1.395-.407 2.535 2.095 1.995 4.377 1.933 8.842-1.033 8.842-1.776 0-3.428.657-3.787 2.027-15.465 4.368-11.182.412-14.679-3.732m23.408-11.577c-4.463-1.768-7.656-9.668-7.656-14.268 0-5.969 5.994-12.667 11.335-12.667 12.017 0 19.14 9.518 13.59 28.002-1.363 4.54-14.746-.068-17.27-1.067m8.333-7.231c5.045-3.534-.025-11.708-5.667-9.138-4.514 2.057-2.591 10.538 2.373 10.685.573.015 2.055-.68 3.294-1.547m-4.588-3.217c-1.708-.596-1.614-3.976.13-4.645 1.561-.6 3.67 1.093 3.67 2.946 0 1.427-2.007 2.325-3.8 1.7m-36.14 7.218c-7.089-3.937-6.11-17.96.297-24.098 5.95-5.7 19.124-5.597 22.087 1.496 1.958 4.687 1.396 9.433-1.1 13.875-3.62 6.44-15.5 11.94-21.283 8.727zm12.751-10.181c2.3-2.081 2.218-4.611.038-7.02-2.392-2.643-5.654-2.747-7.628.265-1.537 2.347-1.815 3.552-.277 5.898 1.915 2.922 5.191 3.279 7.868.857zm-6.571-3.77c-.74-1.928 1.838-4.085 3.926-3.284.885.34 1.456 1.417 1.27 2.394-.425 2.228-4.42 2.913-5.196.89" style="fill:#d3d6da;fill-opacity:1;stroke-width:1.01342" transform="translate(148.422 148.317)"/><path d="m209.43 217.34-1.557-.685c-1.31-.286-2.147.984-2.433 2.293l-.767 3.507a2.41 2.41 0 0 0 1.85 2.876l2.857.625a2.42 2.42 0 0 0 2.883-1.85l.84-5.12c.286-1.31-.62-.983-1.929-1.269l-1.25-.272c-.164.835-.335 1.713-.47 2.375q-.151.746-.278 1.349-.123.602-.222 1.064-.103.462-.18.785-.076.324-.13.514c-.019.063-.028.119-.043.16-.013.042-.028.073-.037.093-.006.01-.01.013-.013.02l-.012.005-.006-.006a.1.1 0 0 1-.006-.031 1 1 0 0 1 0-.1c.002-.043 0-.095.006-.16q.017-.196.055-.513.04-.318.1-.755c.039-.291.088-.626.141-.996.054-.37.112-.773.18-1.218.067-.446.141-.934.222-1.454z" style="fill:#98c6d8;fill-opacity:1;stroke:none;stroke-width:3.16694" transform="translate(148.422 148.317)"/><path d="M164.687 203.388c-.305-.795.125-2.01.956-2.7 1.216-1.009 1.82-.944 3.1.336.874.874 1.28 2.089.902 2.7-.985 1.594-4.304 1.37-4.958-.336M172.077 191.102c-1.077-1.298-1.01-1.864.382-3.257 1.573-1.573 1.8-1.573 3.373 0 1.393 1.393 1.46 1.96.383 3.257-.717.864-1.648 1.571-2.07 1.571-.42 0-1.351-.707-2.068-1.57M172.077 175.9c-1.072-1.29-1.035-1.839.202-3.077 1.635-1.635 4.907-.963 4.907 1.008 0 1.305-2 3.64-3.119 3.64-.378 0-1.273-.706-1.99-1.57" style="fill:#98c6d8;fill-opacity:1;stroke-width:1.01342" transform="translate(148.422 148.317)"/><path d="M207.902 264.04c-10.152-1.293-23.652-4.99-25.688-6.817-3.87-3.471-1.407-19.224 3.175-23.251 2.768-2.432 13.747-5.642 20.19-4.123 7.395 1.744 20.293 10.46 21.25 13.045 1.128 3.05-.61 15.132-2.788 18.122-1.892 2.596-9.012 3.93-16.14 3.023m7.774-7.389c2.274-2.057 2.411-6.74.26-8.89-3.419-3.42-10.568-.774-10.568 3.912 0 5.64 6.245 8.655 10.308 4.978zm-5.888-2.883c-.814-2.123.295-4.56 2.076-4.56 2.188 0 2.872 1.699 1.623 4.033-1.297 2.422-2.885 2.648-3.699.527m-6.493.056c2.02-2.435.87-5.916-2.229-6.74-3.305-.878-4.897.846-2.44 2.643 2.446 1.788 2.051 2.7-1.01 2.335-3.626-.433-5.11-2.981-3.845-6.601 1.282-3.666 5.84-4.504 7.511-1.381 1.324 2.473 2.629 2.68 3.448.544.991-2.582-2.964-5.55-7.396-5.55-7.355 0-10.892 8.528-5.693 13.727 2.87 2.87 9.629 3.463 11.654 1.023" style="fill:#7ba9b9;fill-opacity:1;stroke-width:1.01342" transform="translate(148.422 148.317)"/><path d="M214.405 270.205c-4.111-3.896 5.403-7.507 10.485-.93 2.593 3.124-2.266 5.089-10.485.93m-42.083-8.822c-4.118-4.117 2.533-5.273 7.397-1.286l4.087 2.074-5.657.424c-2.536.003-5.159-.542-5.827-1.21zm57.85-23.426c-.845-1.37 8.928-4.807 9.996-4.147.475.293.863 2.558.863 5.034 0 3.243-.408 4.5-1.46 4.5-.803 0-9.06-4.841-9.398-5.387M209.965 217.6c-11.336-1.025-9.81-5.314-6.856-7.803 1.705-1.436 2.944-2.164 4.666-2.5 0 0-.124 4.145 2.263 4.965 1.9.653 4.848-.765 5.428-1.937 5.162-10.443 2.838.074 3.978 2.576 4.34 13.456-4.83 6.61-9.479 4.699m-41.274.406c-2.016-2.231-3.665-4.512-3.665-5.067 0-1.288 3.165-1.298 6.521-.023 2.196.835 13.482 1.413 13.482 4.858 0 2.244-4.38 7.846-4.872 7.846s-9.45-5.383-11.466-7.614" style="fill:#a6b3c2;fill-opacity:1;stroke-width:1.01342" transform="translate(148.422 148.317)"/><path d="m209.43 217.34-.198 1.237c-.082.52-.155 1.008-.223 1.454s-.125.849-.179 1.218c-.054.37-.103.705-.142.996q-.06.437-.099.755a15 15 0 0 0-.056.513c-.006.065-.003.117-.006.16a1 1 0 0 0 0 .1.1.1 0 0 0 .006.031l.006.006q.006 0 .013-.006l.013-.019a1 1 0 0 0 .037-.092q.017-.065.043-.161.053-.19.13-.514t.18-.785q.098-.462.222-1.064.126-.603.278-1.349c.134-.662.306-1.54.47-2.375z" style="fill:#4c9cbb;fill-opacity:1;stroke:none;stroke-width:3.16694" transform="translate(148.422 148.317)"/><path d="M-53.52 282.472c-13.678-5.283-28.657-17.64-36.697-30.274-10.182-15.999-13.189-27.61-11.21-43.291 1.856-14.695 6.892-22.99 21.525-35.446 20.499-17.452 36.862-25.353 55.231-26.671 27.739-1.99 43.602 6.823 51.264 28.48 2.579 7.288 3.124 25.72 1.227 41.469-.672 5.574-1.73 15.774-2.353 22.667-2.18 24.132-8.59 36.282-22.988 43.577-3.99 2.022-5.729 2.157-26.856 2.091-21.577-.067-22.882-.184-29.143-2.602m-92.954-113.364c.006-3.344.195-4.59.42-2.768.226 1.821.222 4.557-.01 6.08-.23 1.523-.415.033-.41-3.312m-.234-8.191c.049-1.181.29-1.421.613-.613.292.732.256 1.606-.08 1.943-.337.336-.577-.262-.533-1.33m.08-81.496c0-1.394.23-1.964.511-1.267s.282 1.837 0 2.533c-.28.697-.51.127-.51-1.266" style="fill:url(#f);fill-opacity:1;stroke-width:1.01342" transform="translate(148.422 148.317)"/><path d="M98.46 156.508c-3.066-1.017-10.455-4.185-16.42-7.04-11.15-5.334-16.662-6.418-19.288-3.792-.768.768-4.335 2.934-7.927 4.813-5.522 2.89-7.786 3.47-14.676 3.766-7.179.308-9.105-.024-16.215-2.792-9.708-3.779-16.258-7.464-15.946-8.97.125-.61-2.689-2.738-6.255-4.732-7.086-3.963-9.424-6.982-12.215-15.777-2.126-6.697-5.502-10.565-11.079-12.695-2.489-.95-5.105-2.983-6.545-5.085-1.32-1.926-2.992-3.502-3.716-3.502s-2.275-2.559-3.445-5.687c-1.655-4.422-2.08-7.635-1.909-14.441.125-4.995-.27-9.651-.919-10.844-3.153-5.79-5.794-26.792-3.369-26.792.518 0 1.457-2.623 2.087-5.828 2.324-11.825 3.613-14.217 12.904-23.955 9.006-9.44 15.903-19.904 13.62-20.665-.654-.218-.899-.867-.544-1.441s1.022-6.35 1.482-12.835c.81-11.412 2.536-18.315 7.51-30.031 1.948-4.586 6.307-10.721 7.391-10.402.396.116 1.97-.624 3.499-1.646 3.662-2.447 6.41-1.663 12.907 3.682 12.911 10.622 21.965 14.066 31.844 12.112 3.782-.747 5.365-.707 5.91.15.557.874.75.865.762-.036.008-.664-.492-1.52-1.112-1.903-.647-.4.97-1.726 3.8-3.116 2.71-1.33 7.457-5.15 10.549-8.489 6.037-6.518 12.502-9.655 22.282-10.814 5.635-.667 15.35 2.086 14.566 4.128-.584 1.521 7.18 5.941 15.41 8.773 4.751 1.634 8.493 1.985 21.073 1.973 16.42-.015 20.258-.518 19.477-2.553-.636-1.656 2.485-2.47 9.5-2.48 6.353-.008 8.794 1.307 14.705 7.92 5.022 5.617 10.52 9.38 18.76 12.834 3.611 1.514 6.93 3.388 7.375 4.164.545.948 2.707 1.408 6.588 1.401 10.99-.018 21.051-8.38 28.73-23.877 3.766-7.6 4.147-9.121 4.593-18.323.403-8.317.147-10.928-1.496-15.252-1.387-3.65-1.662-5.538-.917-6.283.746-.746.602-1.606-.479-2.864-.85-.988-1.83-2.602-2.18-3.586-.96-2.705-5.018-3.786-14.18-3.775-6.58.008-9.359.505-13.439 2.405-6.505 3.03-8.797 7.327-9.363 17.558-.338 6.1-.055 7.872 1.718 10.739 1.167 1.888 1.857 3.698 1.534 4.021s.823 1.317 2.547 2.208c3.83 1.981 3.946 1.273 1.108-6.801-3.729-10.608-2.028-20.774 3.816-22.811 1.976-.689 5.776-.744 10.981-.16 8.85.992 9.504 1.48 14.08 10.512 3.234 6.384 3.19 7.676-.51 15.274-2.332 4.785-3.942 6.713-6.841 8.187-2.085 1.06-4.02 2.204-4.298 2.54-.279.337-3.996.922-8.261 1.3-7.335.651-7.856.56-9.628-1.69-1.03-1.309-3.153-3.217-4.718-4.242-4.415-2.89-6.782-8.531-6.782-16.16 0-6.107.424-7.964 3.376-14.782 1.541-3.56 3.828-6.132 4.876-5.484.489.301 2.051-.367 3.473-1.485 5.855-4.605 21.855-4.952 28.47-.616 1.334.873 2.832 1.337 3.33 1.03 1.389-.859 4.798 4.07 7.22 10.439 2.526 6.64 3.564 23.886 1.89 31.362-1.519 6.773-6.308 17.281-8.093 17.753-3.08.815-5.24 11.42-4.861 23.87l.349 11.426 5.866 5.546c3.226 3.05 6.251 5.307 6.722 5.016 1.926-1.19 6.838 14.822 6.979 22.753.025 1.393.946 5.745 2.047 9.67 1.102 3.926 2.328 9.74 2.725 12.921.619 4.948.486 5.785-.914 5.785-1.27 0-1.637 1.046-1.637 4.667 0 10.124-5.67 25.203-13.717 36.48-2.55 3.573-4.384 6.905-4.075 7.404.308.499-.807 3.506-2.478 6.683s-3.038 6.625-3.038 7.663c0 4.355-4.273 13.07-8.105 16.533-5.194 4.692-11.773 8.035-16.335 8.3-3.18.184-15.387 5.483-23.191 10.067-3.122 1.833-11.417 1.881-20.522.12-3.762-.729-6.84-.94-6.84-.47 0 1.596-20.11.988-23.39-.707-3.333-1.724-3.434-1.688-10.331 3.734-6 4.716-17.274 10.538-17.734 9.159-.221-.665-1.474-.7-3.572-.097-4.846 1.39-10.705 1.032-16.926-1.033m138.035-228.8c2.114-2.063 3.844-4.312 3.844-4.997s1.368-2.22 3.04-3.41c4.08-2.907 3.941-6.29-.534-12.935l-3.574-5.307h-5.877c-4.85 0-6.265.414-8.104 2.371-4.599 4.895-4.874 12.241-.521 13.896 2.142.814 2.395 1.54 2.395 6.848 0 3.265.304 6.24.676 6.612 1.63 1.63 5.098.396 8.655-3.077" style="fill:url(#g);fill-opacity:1;stroke-width:1.01342" transform="translate(148.422 148.317)"/><path d="m-40.55 191.894 7.777-4.369 4.364 31.173-.312 22.445-11.658 5.787-7.357-13.269z" style="fill:#3060ad;fill-opacity:1;stroke:none;stroke-width:3.16694px;stroke-linecap:butt;stroke-linejoin:miter;stroke-opacity:1" transform="translate(148.422 148.317)"/><path d="m-30.28 204.359 1.87 23.691 11.847 4.053.311-50.19-9.663 2.495z" style="fill:#606368;fill-opacity:1;stroke:none;stroke-width:3.16694px;stroke-linecap:butt;stroke-linejoin:miter;stroke-opacity:1" transform="translate(148.422 148.317)"/><path d="M-40.379 246.93c-7.027-3.369-16.955-13.356-20.166-20.288-1.89-4.08-3.073-5.389-5.32-5.882-3.32-.73-3.259-.526-1.716-5.677.818-2.727 1.748-3.918 3.063-3.918 1.04 0 5.47-3.347 9.844-7.439 4.375-4.091 9.343-8.427 11.04-9.635l3.084-2.197 1.094 5.1c4.111 19.172 4.06 30.139-.171 36.085-3.21 4.51-2.34 6.462 2.884 6.462 2.458 0 3.737-.625 4.664-2.28 1.636-2.922 1.506-20.04-.256-33.696-2.107-16.33-2.203-15.81 3.344-18.124 2.64-1.101 4.991-1.806 5.224-1.567s-.23 4.084-1.028 8.543c-2.846 15.889-1.87 31.626 2.17 34.979 1.232 1.022 1.347-1.155.812-15.395-.69-18.368-.084-24.992 2.592-28.296 1.54-1.902 2.421-2.118 6.278-1.535 7.398 1.119 7.38 1.077 5.153 11.859-1.083 5.244-2.29 11.935-2.68 14.868l-.713 5.332 2.596-.987c1.427-.543 4.5-1.958 6.826-3.145l4.231-2.159-.701 2.374c-.386 1.305-.969 6.104-1.295 10.665l-.593 8.291-4.966-1.957c-2.731-1.077-5.405-1.958-5.942-1.958-.577 0-.976 5.587-.976 13.681 0 11.022-.274 13.681-1.412 13.681-9.978-1.442-16.699-.952-26.964-5.785" style="fill:#eec23b;stroke-width:1.01342" transform="translate(148.422 148.317)"/><path d="M-22.96 251.643c0-.405.532-5.722 1.52-12.847.987-7.126 2.07-15.584 2.405-18.796.335-3.213.985-5.61 1.443-5.326 2.09 1.291 4.042 27.82 3.301 33.968-.47 3.905-1.166 3.958-2.24 3.78-1.93-.322-4.185-.493-6.429-.78m-25.755-29.112c-2.753-.456-5.33-3.887-5.33-7.096 0-2.91 4.251-7.33 7.048-7.33 4.504 0 8.03 7.746 5.351 11.757-1.192 1.786-4.61 3.077-7.07 2.67" style="fill:#fff;stroke-width:1.01342" transform="translate(148.422 148.317)"/><path d="M196.076 266.912c-20.153-5.282-23.295-10.202-22.284-34.892.322-7.847.831-16.092 1.133-18.321 1.682-12.426 4.079-22.921 6.314-27.655 1.978-4.186 2.273-5.671 1.349-6.784-3.26-3.929 2.513-10.062 7.14-7.586 1.644.88 3.03.776 6.12-.46 9.368-3.749 27.572-.284 38.688 7.364 4.013 2.761 5.024 3.068 6.686 2.03 4.463-2.787 10.26 5.36 6.651 9.348-1.394 1.541-1.49 2.42-.556 5.1 2.359 6.765 2.19 7.54-9.197 42.458-7.295 22.37-10.411 29.001-14.256 30.341-4.845 1.69-19.666 1.186-27.788-.943m25.614-6.82c1.388-2.067 2.459-5.758 2.92-10.073.847-7.902.92-7.803-9.607-12.858-7.913-3.8-19.493-4.899-25.438-2.415-3.087 1.29-3.789 2.278-5.4 7.602-2.837 9.367-1.071 14.975 5.33 16.929 3.93 1.199 24.827 4.426 27.502 4.247 1.574-.106 3.314-1.378 4.693-3.431m-9.29-38.51c.54-1.017.704-2.596.704-2.596 1.415.295 2.39.383 3.128.49 1.141.167 2.52-.395 3.065-1.249 1.213-1.9-3.822-10.83-6.605-11.712-2.647-.84-10.864 4.266-10.864 6.752 0 1.108 1.859 2.278 2.695 2.599.455.174 1.266.66 2.241 1.264-.59 1.241-.693 1.623-.795 2.36-.324 2.328.37 2.892 3.32 3.572 2.208.237 2.507-.2 3.111-1.48m23.493-16.785c11.027-10.106-.575-28.338-13.71-21.545-3.243 1.677-6.167 7.062-6.167 11.36 0 6.66 6.546 13.493 12.936 13.506 2.333.006 4.38-.975 6.94-3.321m-30.436-3.65c5.69-3.47 8.005-11.506 4.991-17.333-2.165-4.188-5.394-6.092-10.33-6.092-11.6 0-17.68 16.245-8.72 23.293 3.322 2.613 9.888 2.675 14.059.132" style="fill:#0996d1;stroke-width:1.01342" transform="translate(148.422 148.317)"/><path d="m-47.977-62.377-2.3 3.76c-1.263 2.068-3.178 6.497-4.263 9.842-1.084 3.344-2.654 7.902-3.488 10.131s-1.537 7.473-1.565 11.654c-.059 8.894-1.2 13.632-4.423 18.364-2.07 3.04-2.783 3.393-6.321 3.142-4.499-.318-7.638 1.976-12.266 8.97-1.45 2.19-3.128 3.983-3.73 3.983s-2.167-1.257-3.482-2.79-2.119-2.232-1.781-1.559c1.097 2.19-1.508 18.609-3.687 23.245-2.521 5.364-7.096 9.13-12.457 10.243-4.429.92-3.785.018-11.054 15.458-5.949 12.637-7.958 14.598-17.554 17.152-3.353.892-6.36 3.27-7.688 5.783v7.089c1.03-.244 2.4-.636 4.676-1.355 3.995-1.262 9.29-2.797 11.764-3.414 5.94-1.481 10.758-6.36 12.29-12.445.926-3.676 2.26-5.624 6.013-8.765 3.72-3.115 5.088-5.094 5.988-8.666.888-3.529 1.835-4.914 3.977-5.833 4.56-1.956 15.067-11.85 16.78-15.797.872-2.009 2.559-6.312 3.743-9.563 2.127-5.84 7.212-12.835 9.328-12.835.6 0 3.934-1.855 7.41-4.12 8.479-5.523 9.525-7.95 9.525-21.995 0-9.81.255-11.432 2.165-13.861 1.902-2.418 2.18-4.145 2.283-14.282zM-73.578 53.612c-.377.055-.753.204-1.182.433-2.855 1.528-3.8 3.622-6.742 14.962-1.677 6.465-3.405 10.786-4.973 12.44-1.321 1.393-2.726 3.9-3.124 5.572-1.795 7.55-5.951 12.906-12.6 16.237-5.773 2.893-11.027 7.5-15.457 13.552-2.287 3.126-4.7 6.014-5.369 6.42-1.433.874-4.481 8.433-7.67 19.027-2.597 8.63-8.388 15.859-11.956 14.926-.647-.17-1.076-.161-1.385.383v22.218c1.61-2.554 3.573-5.746 7.422-12.191 5.159-8.64 11.294-18.676 13.633-22.299s6.037-9.76 8.214-13.639c3.259-5.807 5.77-8.537 14.245-15.45l10.293-8.394 5.276-15.965c8.061-24.393 10.288-27.114 21.302-26.028 4.917.484 8.313.21 12.483-1.002 6.107-1.776 6.968-3.207 3.71-6.155-2.025-1.833-5.905-1.826-14.813.031-2.604.543-3.777.105-6.792-2.542-2.282-2.004-3.385-2.7-4.515-2.536m21.377 60.667q-.244.07-.594.346c-.697.549-2.485 1.289-3.977 1.645-2.173.518-3.151 1.814-4.893 6.476-1.197 3.205-2.77 6.513-3.495 7.349s-2.219 3.593-3.321 6.13c-3.336 7.669-7.43 11.38-17.932 16.255-9.527 4.422-9.654 4.524-12.26 10.298-1.634 3.622-2.86 8.566-3.235 13.033-.8 9.557-2.76 11.804-14.56 16.695-10.442 4.328-17.211 9.653-17.678 13.904-.508 4.628-2.368 6.05-7.2 5.505-1.128-.127-1.983-.172-2.69-.08v18.878c2.972-4.14 7.873-8.143 18.024-14.79 11.974-7.84 18.767-14.288 21.29-20.213 1.008-2.368 3.118-6.977 4.689-10.243 1.57-3.267 3.148-7.508 3.507-9.42.938-5.001 5.486-9.047 12.327-10.968 13.062-3.667 14.71-5.274 16.466-16.014 1.458-8.916 6.542-19.958 12.086-26.257 2.267-2.575 4.12-5.69 4.12-6.927 0-1.242-.187-1.742-.674-1.602" style="fill:#359136;stroke-width:1.01342" transform="translate(148.422 148.317)"/><path d="M-18.083 76.041c-4.248-1.108-4.538-1.397-4.23-4.218.181-1.665.41-3.1.506-3.186.097-.087 2.94.522 6.32 1.353 5.484 1.349 6.542 1.343 9.878-.05 4.79-2.002 6.521-5.507 4.787-9.695-.954-2.302-3.074-3.946-8.638-6.695-9.536-4.712-11.841-7.202-12.372-13.366-.791-9.182 5.336-14.475 16.757-14.475 3.363 0 7.253.433 8.645.963 2.318.88 2.436 1.214 1.4 3.958-.988 2.617-1.435 2.88-3.544 2.078-4.079-1.551-10.977-1.08-13.443.917-2.521 2.041-3.005 6.389-.983 8.826.706.85 4.93 3.444 9.387 5.762 7.066 3.676 8.35 4.775 10.037 8.589 2.531 5.722 1.626 10.863-2.67 15.167-5.077 5.085-12.586 6.486-21.837 4.072m43.256-.054c-7.668-2.857-10.827-7.916-10.827-17.341 0-7.137 1.753-11.328 6.472-15.47 3.242-2.848 4.467-3.279 9.322-3.279 3.09 0 6.96.71 8.658 1.588 3.768 1.948 6.911 8.456 6.942 14.374l.022 4.307H21.22l.652 2.787c.359 1.532 2.06 4.084 3.782 5.67 2.93 2.702 3.588 2.863 10.351 2.534 6.72-.326 7.244-.2 7.53 1.8.37 2.598-1.237 3.321-8.838 3.98-3.56.31-7.092-.043-9.525-.95m12.77-24.435c-.275-3.815-3.576-6.588-7.844-6.588-3.317 0-5.35 1.573-7.562 5.849-1.901 3.674-.519 4.39 7.856 4.073l7.768-.294zm19.3 24.412c-3.777-1.698-5.572-4.62-5.704-9.286-.208-7.357 5.122-11.783 15.799-13.117 5.36-.67 5.792-.91 5.19-2.89-1.648-5.42-7.296-7.28-14.173-4.665-3.106 1.181-2.989 1.233-3.892-1.71-.563-1.833-.11-2.374 2.787-3.33 5.272-1.74 14.48-1.552 17.391.356 4.484 2.938 5.388 6.268 5.748 21.169l.336 13.892h-3.294c-2.251-.002-3.293-.484-3.293-1.523 0-1.914-1.001-1.922-3.7-.032-3.217 2.253-9.506 2.794-13.195 1.136m13.601-7.323c1.581-1.739 2.28-3.774 2.28-6.637v-4.129l-4.623.521c-8.504.959-12.33 7.555-6.872 11.848 3.177 2.499 5.92 2.022 9.215-1.603m85.17 7.751c-7.468-2.25-11.95-8.927-11.95-17.8 0-11.409 6.803-18.77 17.424-18.851 8.418-.066 13.738 5.513 14.235 14.927l.263 4.991-11.147.268c-6.131.147-11.701.469-12.378.714-1.883.683.392 6.207 3.612 8.765 2.342 1.862 3.61 2.066 9.93 1.6 7.002-.516 7.262-.454 7.704 1.862.412 2.153-.045 2.504-4.508 3.46-5.7 1.223-9.284 1.24-13.186.064m12.372-23.69c0-4.038-3.693-7.738-7.723-7.738-4.136 0-8.492 3.975-8.492 7.75 0 2.305.27 2.385 8.107 2.385 7.85 0 8.108-.077 8.108-2.397m25.052 23.466c-8.076-2.143-12.68-10.442-11.414-20.573 1.299-10.39 7.077-15.687 17.119-15.694 5.357-.003 6.25.318 9.27 3.337 3.355 3.356 5.56 8.953 5.57 14.14l.007 2.788h-12.161c-11.615 0-12.161.094-12.161 2.093 0 6.165 5.658 9.528 14.797 8.795 5.764-.463 6.361-.323 6.865 1.605.688 2.632.627 2.689-4.1 3.786-4.819 1.118-8.838 1.037-13.792-.277zm12.607-24.11c-.53-3.897-4.066-7.094-7.85-7.094-3.67 0-8.527 4.686-8.527 8.227 0 1.84.627 1.968 8.36 1.695 8.27-.29 8.357-.322 8.017-2.828m22.354 23.65c-4.29-2.114-6.974-5.95-8.3-11.865-1.906-8.507.375-16.48 6.093-21.291 4.141-3.485 12.463-3.764 16.543-.554l2.67 2.1V23.683h8.108V76.38h-3.547c-3.17 0-3.547-.288-3.547-2.71v-2.71l-2.28 2.136c-4.665 4.37-10.283 5.302-15.74 2.612m14.044-7.357c2.722-2.722 2.963-3.55 2.963-10.212 0-6.726-.223-7.473-3.081-10.33-2.576-2.577-3.614-2.98-6.334-2.458-9.148 1.756-11.865 17.778-4.057 23.92 3.63 2.854 7.033 2.556 10.51-.92M92.55 58.835c-2.88-9.65-5.238-17.86-5.238-18.242s1.746-.696 3.88-.696h3.879l3.38 14.442c1.859 7.942 3.529 13.985 3.71 13.427s2.1-6.942 4.262-14.188l3.93-13.174h6.657l3.496 12.668c1.923 6.967 3.728 13.352 4.01 14.188.283.836 2.122-4.979 4.086-12.921l3.572-14.442h4.027c3.111 0 3.897.336 3.459 1.479-.312.813-2.953 9.021-5.869 18.241L128.49 76.38h-7.35l-3.342-11.907c-1.838-6.55-3.574-12.592-3.857-13.428-.571-1.683-.271-2.483-5.415 14.441l-3.312 10.894h-7.426z" style="fill:#30274f;stroke-width:1.01342" transform="translate(148.422 148.317)"/><path d="M-75.97-64.845c-9.759-2.838-12.419-15.328-4.815-22.613 8.107-7.767 20.74-1.606 20.74 10.114 0 8.689-7.847 14.848-15.924 12.5" style="fill:url(#h);fill-opacity:1;stroke-width:1.01342" transform="translate(148.422 148.317)"/><path d="M-86.66 212.127c-2.883-3.473 1.092-9.344 4.767-7.04 3.616 2.266 2.315 8.505-1.774 8.505-.978 0-2.325-.66-2.994-1.465" style="fill:url(#i);fill-opacity:1;stroke-width:1.01342" transform="translate(148.422 148.317)"/><path d="M-75.053 192.153c-5.173-2.83-6.112-8.517-2.073-12.557 2.824-2.823 6.204-3.182 9.333-.99 4.83 3.382 3.652 11.691-1.933 13.638 0 0-3.407.94-5.327-.09z" style="fill:url(#j);fill-opacity:1;stroke-width:1.01342" transform="translate(148.422 148.317)"/><path d="M-123.245-1.953c-4.322-4.323-.838-13.174 5.187-13.174 4.515 0 8.398 4.282 7.582 8.361-.347 1.738-1.381 3.988-2.297 5-2.257 2.494-7.89 2.394-10.472-.187" style="fill:url(#k);fill-opacity:1;stroke-width:1.01342" transform="translate(148.422 148.317)"/><path d="M-45.14 214.418a3.474 3.474 0 0 1-3.474 3.474 3.474 3.474 0 0 1-3.474-3.474 3.474 3.474 0 0 1 3.474-3.473 3.474 3.474 0 0 1 3.474 3.473" style="opacity:1;stroke-width:3.16694" transform="translate(148.422 148.317)"/><path d="M-123.154-148.317c-13.957 0-25.268 11.31-25.268 25.267v386.057c0 13.956 11.311 25.267 25.268 25.267h386.47c13.957 0 25.262-11.311 25.262-25.267V-123.05c0-13.956-11.305-25.267-25.261-25.267zm0 4.75h386.47c11.408 0 20.512 9.11 20.512 20.517v386.057c0 11.407-9.104 20.517-20.511 20.517h-386.471c-11.407 0-20.517-9.11-20.517-20.517V-123.05c0-11.407 9.11-20.517 20.517-20.517" style="color:#000;fill:#b3b3b3;stroke-width:3.16694;-inkscape-stroke:none" transform="translate(148.422 148.317)"/><path d="M216.216 209.128a4.455 3.931 0 0 1-4.455 3.931 4.455 3.931 0 0 1-4.455-3.93 4.455 3.931 0 0 1 4.455-3.932 4.455 3.931 0 0 1 4.455 3.931" style="fill:#59686f" transform="translate(148.422 148.317)"/></svg>
